<svg width="98" height="43" viewBox="0 0 98 43" fill="none" xmlns="http://www.w3.org/2000/svg">
<ellipse cx="21.5" cy="20.5" rx="21.5" ry="19.5" fill="#343957"/>
<path d="M24.672 34C24.432 34 24.228 33.916 24.06 33.748C23.892 33.58 23.808 33.376 23.808 33.136V9.7C23.808 9.436 23.88 9.22 24.024 9.052C24.192 8.884 24.408 8.8 24.672 8.8H34.32C37.2 8.8 39.468 9.484 41.124 10.852C42.78 12.196 43.608 14.176 43.608 16.792C43.608 19.408 42.78 21.388 41.124 22.732C39.492 24.052 37.224 24.712 34.32 24.712H28.956V33.136C28.956 33.376 28.872 33.58 28.704 33.748C28.56 33.916 28.356 34 28.092 34H24.672ZM34.14 20.716C35.532 20.716 36.6 20.392 37.344 19.744C38.088 19.072 38.46 18.088 38.46 16.792C38.46 15.544 38.1 14.572 37.38 13.876C36.66 13.156 35.58 12.796 34.14 12.796H28.884V20.716H34.14Z" fill="white"/>
<path d="M48.4385 34C48.1745 34 47.9585 33.928 47.7905 33.784C47.6225 33.616 47.5385 33.4 47.5385 33.136V9.7C47.5385 9.436 47.6225 9.22 47.7905 9.052C47.9585 8.884 48.1745 8.8 48.4385 8.8H51.2825C51.7865 8.8 52.1465 9.028 52.3625 9.484L59.3105 22.444L66.3305 9.484C66.5705 9.028 66.9305 8.8 67.4105 8.8H70.2185C70.4825 8.8 70.6985 8.884 70.8665 9.052C71.0345 9.22 71.1185 9.436 71.1185 9.7V33.136C71.1185 33.4 71.0345 33.616 70.8665 33.784C70.6985 33.928 70.4825 34 70.2185 34H67.1945C66.9545 34 66.7505 33.916 66.5825 33.748C66.4145 33.58 66.3305 33.376 66.3305 33.136V17.548L61.2905 27.16C60.9785 27.688 60.5705 27.952 60.0665 27.952H58.5905C58.0865 27.952 57.6785 27.688 57.3665 27.16L52.3265 17.548V33.136C52.3265 33.376 52.2425 33.58 52.0745 33.748C51.9305 33.916 51.7265 34 51.4625 34H48.4385ZM85.4662 34.36C83.3302 34.36 81.4942 34.036 79.9582 33.388C78.4222 32.74 77.2582 31.888 76.4662 30.832C75.6742 29.776 75.2542 28.636 75.2062 27.412C75.2062 27.196 75.2782 27.016 75.4222 26.872C75.5662 26.728 75.7462 26.656 75.9622 26.656H79.1662C79.4542 26.656 79.6702 26.716 79.8142 26.836C79.9822 26.932 80.1382 27.1 80.2822 27.34C80.5222 28.156 81.0742 28.84 81.9382 29.392C82.8022 29.944 83.9782 30.22 85.4662 30.22C87.1702 30.22 88.4542 29.944 89.3182 29.392C90.1822 28.816 90.6142 28.024 90.6142 27.016C90.6142 26.344 90.3862 25.792 89.9302 25.36C89.4982 24.928 88.8382 24.556 87.9502 24.244C87.0862 23.932 85.7902 23.548 84.0622 23.092C81.2302 22.42 79.1542 21.532 77.8342 20.428C76.5382 19.3 75.8902 17.704 75.8902 15.64C75.8902 14.248 76.2622 13.012 77.0062 11.932C77.7742 10.852 78.8662 10 80.2822 9.376C81.7222 8.752 83.3902 8.44 85.2862 8.44C87.2542 8.44 88.9582 8.788 90.3982 9.484C91.8382 10.18 92.9302 11.056 93.6742 12.112C94.4422 13.144 94.8502 14.176 94.8982 15.208C94.8982 15.424 94.8262 15.604 94.6822 15.748C94.5382 15.892 94.3582 15.964 94.1422 15.964H90.7942C90.2902 15.964 89.9422 15.736 89.7502 15.28C89.6062 14.512 89.1262 13.876 88.3102 13.372C87.4942 12.844 86.4862 12.58 85.2862 12.58C83.9422 12.58 82.8862 12.832 82.1182 13.336C81.3502 13.84 80.9662 14.572 80.9662 15.532C80.9662 16.204 81.1582 16.756 81.5422 17.188C81.9262 17.62 82.5262 18.004 83.3422 18.34C84.1822 18.676 85.3822 19.048 86.9422 19.456C89.0542 19.936 90.7342 20.476 91.9822 21.076C93.2542 21.676 94.1902 22.432 94.7902 23.344C95.3902 24.256 95.6902 25.42 95.6902 26.836C95.6902 28.372 95.2582 29.716 94.3942 30.868C93.5542 31.996 92.3542 32.86 90.7942 33.46C89.2582 34.06 87.4822 34.36 85.4662 34.36Z" fill="#343957"/>
</svg>
