<svg width="65" height="44" viewBox="0 0 65 44" fill="none" xmlns="http://www.w3.org/2000/svg">
<path d="M22.3864 38.6758L23.0916 39.3779L23.7971 38.6763L61.428 1.2529C61.6424 1.08032 61.9135 0.990174 62.1912 1.00085C62.4797 1.01195 62.7525 1.13102 62.9554 1.33303C63.1582 1.53492 63.2762 1.80471 63.2872 2.08822C63.2978 2.36097 63.2086 2.62849 63.0359 2.84131L23.1343 42.589L1.54004 21.11C1.36746 20.8973 1.27835 20.6298 1.28893 20.3572C1.29993 20.0737 1.41798 19.8039 1.62076 19.602C1.82366 19.4 2.09649 19.2809 2.38499 19.2698C2.66256 19.2592 2.93358 19.3492 3.148 19.5217L22.3864 38.6758Z" fill="white" stroke="white" stroke-width="2"/>
</svg>
